HIERARCHY
ROOT Hips
{
	OFFSET 0.000000 0.000000 0.000000
	CHANNELS 6 Xposition Yposition Zposition Xrotation Yrotation Zrotation
	JOINT LeftUpLeg_virtual
	{
		OFFSET 0.000000 0.000000 0.000000
		CHANNELS 3 Xrotation Yrotation Zrotation
		JOINT LeftUpLeg
		{
			OFFSET 10.205400 -3.823500 0.155100
			CHANNELS 3 Xrotation Yrotation Zrotation
			JOINT LeftLeg
			{
				OFFSET 0.708757 -12.982077 0.567790
				CHANNELS 3 Xrotation Yrotation Zrotation
				JOINT LeftFoot
				{
					OFFSET -0.708756 -10.717838 -2.184338
					CHANNELS 3 Xrotation Yrotation Zrotation
					JOINT LeftToeBase
					{
						OFFSET 0.108149 -7.191104 7.560241
						CHANNELS 3 Xrotation Yrotation Zrotation
						JOINT LeftToe_End
						{
							OFFSET 0.070230 0.081724 4.490308
							CHANNELS 3 Xrotation Yrotation Zrotation
							End Site
							{
								OFFSET 0 0 0
							}
						}
					}
				}
			}
		}
	}
	JOINT RightUpLeg_virtual
	{
		OFFSET 0.000000 0.000000 0.000000
		CHANNELS 3 Xrotation Yrotation Zrotation
		JOINT RightUpLeg
		{
			OFFSET -10.205400 -3.823500 0.005500
			CHANNELS 3 Xrotation Yrotation Zrotation
			JOINT RightLeg
			{
				OFFSET -0.708756 -12.982134 0.610632
				CHANNELS 3 Xrotation Yrotation Zrotation
				JOINT RightFoot
				{
					OFFSET 0.708754 -10.717769 -1.945823
					CHANNELS 3 Xrotation Yrotation Zrotation
					JOINT RightToeBase
					{
						OFFSET -0.108140 -7.191069 7.372968
						CHANNELS 3 Xrotation Yrotation Zrotation
						JOINT RightToe_End
						{
							OFFSET -0.070227 0.081735 4.479403
							CHANNELS 3 Xrotation Yrotation Zrotation
							End Site
							{
								OFFSET 0 0 0
							}
						}
					}
				}
			}
		}
	}
	JOINT Spine_virtual
	{
		OFFSET 0.000000 0.000000 0.000000
		CHANNELS 3 Xrotation Yrotation Zrotation
		JOINT Spine
		{
			OFFSET 0.000000 6.876099 0.125700
			CHANNELS 3 Xrotation Yrotation Zrotation
			JOINT Spine1
			{
				OFFSET 0.000000 5.730043 0.104720
				CHANNELS 3 Xrotation Yrotation Zrotation
				JOINT Spine1_split
				{
					OFFSET 0.000000 5.730043 0.104720
					CHANNELS 3 Xrotation Yrotation Zrotation
					JOINT Spine2
					{
						OFFSET 0.000000 5.730043 0.104720
						CHANNELS 3 Xrotation Yrotation Zrotation
						JOINT Neck_virtual
						{
							OFFSET 0.000000 0.000000 0.000000
							CHANNELS 3 Xrotation Yrotation Zrotation
							JOINT Neck
							{
								OFFSET 0.000000 10.314075 0.188496
								CHANNELS 3 Xrotation Yrotation Zrotation
								JOINT Head
								{
									OFFSET 0.000000 7.643700 -2.377400
									CHANNELS 3 Xrotation Yrotation Zrotation
									JOINT HeadTop_End
									{
										OFFSET 0.000000 43.788605 -13.619600
										CHANNELS 3 Xrotation Yrotation Zrotation
										End Site
										{
											OFFSET 0 0 0
										}
									}
								}
							}
						}
						JOINT LeftShoulder_virtual
						{
							OFFSET 0.000000 0.000000 0.000000
							CHANNELS 3 Xrotation Yrotation Zrotation
							JOINT LeftShoulder
							{
								OFFSET 2.196100 4.412489 0.087492
								CHANNELS 3 Xrotation Yrotation Zrotation
								JOINT LeftShoulder_split
								{
									OFFSET 2.196100 4.412489 0.087492
									CHANNELS 3 Xrotation Yrotation Zrotation
									JOINT LeftArm
									{
										OFFSET 8.771219 -2.981674 -0.026999
										CHANNELS 3 Xrotation Yrotation Zrotation
										JOINT LeftForeArm
										{
											OFFSET 8.512804 0.000000 -0.000000
											CHANNELS 3 Xrotation Yrotation Zrotation
											JOINT LeftHand
											{
												OFFSET 18.484802 0.000000 -0.000000
												CHANNELS 3 Xrotation Yrotation Zrotation
												End Site
												{
													OFFSET 0 0 0
												}
											}
										}
									}
								}
							}
						}
						JOINT RightShoulder_virtual
						{
							OFFSET 0.000000 0.000000 0.000000
							CHANNELS 3 Xrotation Yrotation Zrotation
							JOINT RightShoulder
							{
								OFFSET -2.196100 4.412496 0.070690
								CHANNELS 3 Xrotation Yrotation Zrotation
								JOINT RightShoulder_split
								{
									OFFSET -2.196100 4.412496 0.070690
									CHANNELS 3 Xrotation Yrotation Zrotation
									JOINT RightArm
									{
										OFFSET -8.771282 -2.981682 -0.094208
										CHANNELS 3 Xrotation Yrotation Zrotation
										JOINT RightForeArm
										{
											OFFSET -8.494598 0.000000 0.000000
											CHANNELS 3 Xrotation Yrotation Zrotation
											JOINT RightHand
											{
												OFFSET -18.483803 0.000000 0.000001
												CHANNELS 3 Xrotation Yrotation Zrotation
												End Site
												{
													OFFSET 0 0 0
												}
											}
										}
									}
								}
							}
						}
					}
				}
			}
		}
	}
}
MOTION
Frames: 8
Frame Time: 0.03333333
0.150965 24.537418 -2.604660 0.000000 0.000000 0.000000 -14.580714 5.783583 1.737372 -32.639428 -4.033423 14.660764 77.496986 -2.141551 0.091613 -35.443918 1.853606 -17.610007 -2.430805 0.028861 0.376449 0.000000 0.000000 0.000000 -13.529319 3.576847 1.413566 -25.316479 -1.449150 -23.666769 77.117972 5.236177 -0.456999 -39.088503 -7.083082 16.803753 0.945707 -0.001479 -1.309476 0.000000 0.000000 0.000000 -12.969853 4.278878 1.309466 25.168489 -3.489188 -0.346291 16.652198 -0.228964 0.482748 -0.020090 1.019288 0.277694 0.000000 0.000000 0.000000 17.775851 -0.240202 0.649308 8.309907 -4.129989 1.213796 -12.451564 -2.130557 -4.037591 0.000000 0.000000 0.000000 18.364033 -0.381613 0.284795 0.702826 -19.168335 -4.353513 -1.463257 -1.786077 -4.603733 -29.440653 -0.002121 -59.865010 -135.972974 -77.051828 -133.864618 0.000000 0.000000 0.000000 18.068482 -0.017849 0.763581 7.388879 2.996373 21.426841 2.543119 3.688825 4.118383 -31.332192 9.898339 42.607225 -104.308375 63.029143 95.249795 0.000000 0.000000 0.000000 
0.096528 24.745264 -2.431679 0.000000 0.000000 0.000000 -15.334470 5.491903 1.433250 -30.571363 -4.159878 14.977908 76.444700 -1.967935 0.302902 -35.590026 1.883110 -17.377150 -2.564248 0.041123 0.348042 0.000000 0.000000 0.000000 -14.406114 3.797204 1.178974 -23.296498 -1.630814 -22.891534 76.358079 5.057434 -0.442138 -39.419825 -7.239583 16.666643 0.877583 -0.027386 -1.225056 0.000000 0.000000 0.000000 -14.173283 3.910034 1.156402 24.774947 -3.226521 -0.475482 16.140053 -0.171143 0.580931 -0.238893 0.621202 0.295415 0.000000 0.000000 0.000000 17.023241 -0.186490 0.665090 8.014555 -3.975364 0.604646 -11.874947 -1.754075 -3.573750 0.000000 0.000000 0.000000 18.124889 -0.463047 0.387167 0.545906 -19.436534 -5.516026 -0.795060 -2.104582 -4.012317 -27.175892 -1.576327 -60.206615 -131.830069 -79.893529 -129.681195 0.000000 0.000000 0.000000 17.554855 0.049103 0.911507 7.359827 3.372196 21.708547 2.169439 2.928378 4.285131 -28.524796 8.194980 40.978864 -103.290970 62.916438 93.817095 0.000000 0.000000 0.000000 
0.016652 25.024160 -2.273874 0.000000 0.000000 0.000000 -16.197017 5.182389 1.123586 -28.237179 -4.372890 15.375377 74.910277 -1.803562 0.532028 -35.571133 1.846288 -17.164699 -2.633892 0.041675 0.335511 0.000000 0.000000 0.000000 -15.427393 3.994625 0.961776 -20.903732 -2.080318 -22.028479 75.116330 4.869696 -0.363484 -39.716874 -7.412292 16.455990 0.750715 -0.036739 -1.139291 0.000000 0.000000 0.000000 -15.492672 3.780788 0.910572 24.129074 -2.911058 -0.509048 15.782981 -0.154230 0.726361 -0.208996 0.673229 0.368079 0.000000 0.000000 0.000000 16.451364 -0.192707 0.705380 7.613130 -3.705834 -0.114819 -11.513359 -1.289927 -3.022536 0.000000 0.000000 0.000000 17.957650 -0.559742 0.588332 0.415018 -20.139578 -6.635595 -0.769215 -2.313418 -3.675204 -24.447943 -3.986994 -59.631656 -123.080104 -82.212351 -120.379694 0.000000 0.000000 0.000000 17.094987 0.003456 1.110314 7.159388 3.588134 22.092802 1.354875 2.830278 4.217474 -24.803139 7.751755 39.178365 -104.653367 64.066068 94.813244 0.000000 0.000000 0.000000 
-0.077184 25.339199 -2.125832 0.000000 0.000000 0.000000 -17.053823 4.883962 0.864929 -25.852833 -4.616609 15.781560 73.066352 -1.658325 0.727070 -35.384041 1.761687 -16.971381 -2.636331 0.028841 0.358437 0.000000 0.000000 0.000000 -16.493029 4.072838 0.805065 -18.472745 -2.742409 -21.195877 73.537669 4.708803 -0.223167 -39.868477 -7.576045 16.234561 0.557922 -0.028487 -1.096552 0.000000 0.000000 0.000000 -16.726963 3.933363 0.652678 23.427882 -2.613264 -0.467013 15.509802 -0.185253 0.867139 0.226883 1.115645 0.602203 0.000000 0.000000 0.000000 16.035712 -0.245973 0.753450 6.906585 -3.328000 -0.825334 -11.516436 -0.857631 -2.376586 0.000000 0.000000 0.000000 17.699100 -0.659522 0.842960 0.367341 -20.952956 -7.443990 -1.120563 -2.443103 -3.741420 -22.184545 -6.237726 -58.335710 -115.430142 -83.590970 -111.712341 0.000000 0.000000 0.000000 16.641908 -0.140206 1.306821 6.875033 3.501476 22.511465 0.253716 3.011120 4.142108 -20.628179 8.028126 37.999494 -107.574400 66.258463 97.316289 0.000000 0.000000 0.000000 
-0.161516 25.657696 -1.990702 0.000000 0.000000 0.000000 -17.815901 4.623359 0.697719 -23.669237 -4.842877 16.104415 71.170749 -1.510443 0.854974 -35.059761 1.696119 -16.788649 -2.571896 0.015836 0.394541 0.000000 0.000000 0.000000 -17.456411 4.043714 0.704532 -16.226938 -3.513541 -20.458679 71.801920 4.601941 -0.033989 -39.918262 -7.722986 16.006902 0.396731 -0.007654 -1.113957 0.000000 0.000000 0.000000 -17.799874 4.253193 0.466211 22.792932 -2.386438 -0.375502 15.208393 -0.269377 0.956109 0.827672 1.527728 0.768256 0.000000 0.000000 0.000000 15.654198 -0.338546 0.805913 5.816254 -2.829844 -1.386987 -11.963864 -0.599101 -1.661473 0.000000 0.000000 0.000000 17.283239 -0.751872 1.063187 0.398831 -21.591642 -7.988100 -1.856055 -2.397953 -4.365105 -20.390457 -7.640740 -56.999889 -115.837372 -84.542784 -110.853451 0.000000 0.000000 0.000000 16.137840 -0.343066 1.429282 6.582066 3.118150 22.954898 -0.649078 3.403048 3.964077 -16.570703 8.347433 37.766377 -111.415221 69.143091 100.590204 0.000000 0.000000 0.000000 
-0.222265 25.949198 -1.856232 0.000000 0.000000 0.000000 -18.431484 4.415353 0.619449 -21.848979 -5.011727 16.288850 69.481684 -1.352444 0.914299 -34.651561 1.711360 -16.638098 -2.480297 0.009788 0.430185 0.000000 0.000000 0.000000 -18.236315 4.004925 0.660913 -14.281027 -4.288092 -19.837082 70.079879 4.539759 0.187212 -39.966753 -7.828829 15.714737 0.344044 0.022171 -1.189727 0.000000 0.000000 0.000000 -18.619579 4.632334 0.400610 22.302495 -2.251885 -0.286620 14.789765 -0.383420 0.967439 1.194449 2.067743 0.727262 0.000000 0.000000 0.000000 15.226548 -0.424867 0.811175 4.454623 -2.235546 -1.724846 -12.735047 -0.421150 -0.952858 0.000000 0.000000 0.000000 16.666462 -0.829170 1.179901 0.447510 -21.865420 -8.437689 -2.628779 -2.335151 -5.096900 -18.443577 -7.994922 -56.056268 -123.673498 -85.780073 -117.473994 0.000000 0.000000 0.000000 15.532152 -0.546767 1.464024 6.365391 2.465455 23.349999 -1.175181 3.570376 3.522747 -13.444255 8.404841 38.656542 -115.427028 72.453322 103.916656 0.000000 0.000000 0.000000 
-0.267316 26.207277 -1.715591 0.000000 0.000000 0.000000 -18.850533 4.248291 0.601460 -20.460892 -5.128399 16.327477 68.125973 -1.177011 0.927448 -34.215775 1.852381 -16.567776 -2.387182 0.017706 0.446110 0.000000 0.000000 0.000000 -18.799836 4.012162 0.654427 -12.675935 -4.975147 -19.337234 68.487721 4.506423 0.432854 -40.051635 -7.892822 15.340164 0.358092 0.048636 -1.291486 0.000000 0.000000 0.000000 -19.180652 5.010573 0.488402 21.987291 -2.195418 -0.229947 14.206147 -0.475179 0.901942 1.294742 2.229796 0.726376 0.000000 0.000000 0.000000 14.660093 -0.471401 0.777459 3.032705 -1.582066 -1.846999 -13.676926 -0.252981 -0.354065 0.000000 0.000000 0.000000 15.909698 -0.880288 1.194282 0.484858 -21.605645 -8.876391 -3.182343 -2.208700 -5.574122 -16.103315 -7.720436 -55.589971 -136.317284 -88.066396 -129.203806 0.000000 0.000000 0.000000 14.819250 -0.679806 1.429472 6.230934 1.674274 23.608921 -1.537373 3.521838 3.123905 -11.414339 8.253426 39.912849 -119.064404 76.010949 106.859785 0.000000 0.000000 0.000000 
-0.295302 26.425547 -1.586948 0.000000 0.000000 0.000000 -19.083993 4.178874 0.632981 -19.512623 -5.179018 16.243344 67.125658 -0.990780 0.916530 -33.816738 2.102771 -16.590601 -2.325769 0.037540 0.440061 0.000000 0.000000 0.000000 -19.095986 4.096769 0.679905 -11.414155 -5.511854 -18.946685 67.062677 4.482800 0.674368 -40.129318 -7.918985 14.925760 0.354462 0.063372 -1.388905 0.000000 0.000000 0.000000 -19.499738 5.326496 0.686385 21.797406 -2.173576 -0.215987 13.487318 -0.508394 0.795369 1.141538 2.016552 0.491444 0.000000 0.000000 0.000000 13.940710 -0.456151 0.714859 1.656730 -0.889852 -1.794092 -14.624466 0.006162 0.042320 0.000000 0.000000 0.000000 15.068775 -0.885967 1.124634 0.459822 -20.877359 -9.389750 -3.606924 -2.172510 -5.549845 -13.174592 -7.453524 -55.580142 74.209671 -88.398193 81.885922 0.000000 0.000000 0.000000 14.032651 -0.702241 1.351453 6.174911 0.937696 23.810992 -1.642148 3.297796 2.695547 -10.352811 8.170134 40.922949 -122.668353 79.711026 109.966831 0.000000 0.000000 0.000000 
